<?xml version="1.0" standalone="no"?>
<!DOCTYPE svg PUBLIC "-//W3C//DTD SVG 20010904//EN"
 "http://www.w3.org/TR/2001/REC-SVG-20010904/DTD/svg10.dtd">
<svg version="1.0" xmlns="http://www.w3.org/2000/svg"
 width="375.000000pt" height="375.000000pt" viewBox="0 0 375.000000 375.000000"
 preserveAspectRatio="xMidYMid meet">
<metadata>
Created by potrace 1.11, written by Peter Selinger 2001-2013
</metadata>
<g transform="translate(0.000000,375.000000) scale(0.100000,-0.100000)"
fill="#000000" stroke="none">
<path d="M1739 3746 c-2 -2 -35 -6 -74 -9 -38 -4 -95 -11 -125 -17 -30 -6 -66
-13 -80 -16 -96 -18 -256 -73 -380 -131 -450 -210 -812 -611 -973 -1078 -78
-227 -106 -405 -102 -650 2 -150 7 -200 30 -330 34 -185 136 -450 237 -613
202 -326 510 -596 845 -741 90 -39 257 -97 303 -105 14 -2 43 -9 65 -15 22 -6
60 -13 85 -16 25 -3 56 -8 70 -11 42 -11 392 -13 441 -4 26 5 69 12 95 15 69
8 223 48 329 85 91 32 276 117 324 149 192 128 274 193 389 311 267 272 458
654 508 1015 3 22 8 51 11 65 9 47 11 355 2 420 -21 158 -23 166 -50 272 -111
438 -383 824 -769 1090 -36 24 -78 51 -95 60 -16 9 -59 32 -95 50 -181 96
-353 150 -610 193 -41 6 -375 17 -381 11z"/>
</g>
</svg>
