<?xml version="1.0" standalone="no"?>
<!DOCTYPE svg PUBLIC "-//W3C//DTD SVG 20010904//EN"
 "http://www.w3.org/TR/2001/REC-SVG-20010904/DTD/svg10.dtd">
<svg version="1.0" xmlns="http://www.w3.org/2000/svg"
 width="640.000000pt" height="640.000000pt" viewBox="0 0 640.000000 640.000000"
 preserveAspectRatio="xMidYMid meet">
<metadata>
Created by potrace 1.11, written by Peter Selinger 2001-2013
</metadata>
<g transform="translate(0.000000,640.000000) scale(0.100000,-0.100000)"
fill="#000000" stroke="none">
<path d="M3005 6394 c-204 -15 -465 -59 -652 -109 -668 -181 -1280 -595 -1700
-1150 -633 -836 -817 -1920 -497 -2916 190 -590 551 -1118 1030 -1503 384
-310 846 -533 1310 -635 282 -61 413 -75 704 -75 291 0 422 14 704 75 770 169
1482 650 1928 1304 299 438 473 897 545 1433 23 175 23 587 0 764 -51 385
-144 693 -313 1035 -258 523 -631 942 -1124 1266 -399 261 -851 426 -1352 492
-109 15 -480 27 -583 19z m317 -914 c57 -5 155 -15 218 -20 141 -13 411 -59
455 -79 11 -4 58 -21 105 -36 47 -15 89 -31 94 -36 6 -5 16 -9 24 -9 8 0 51
-18 97 -40 46 -22 88 -40 94 -40 6 0 11 -4 11 -9 0 -5 8 -11 18 -15 9 -3 26
-11 37 -18 11 -7 40 -26 66 -43 104 -68 299 -255 299 -288 0 -5 8 -17 18 -26
44 -42 141 -248 181 -386 47 -164 67 -459 47 -685 -10 -114 -41 -271 -66 -335
-4 -11 -16 -42 -25 -70 -9 -27 -27 -72 -40 -100 -12 -27 -29 -65 -36 -82 -8
-18 -16 -33 -19 -33 -3 0 -14 -16 -24 -35 -11 -19 -23 -35 -28 -35 -4 0 -8 -6
-8 -12 -1 -26 -180 -219 -255 -275 -32 -25 -128 -90 -160 -110 -40 -25 -202
-103 -214 -103 -6 0 -19 -4 -29 -9 -40 -22 -111 -49 -162 -64 -116 -32 -147
-40 -205 -48 -33 -5 -107 -17 -165 -25 -75 -12 -217 -18 -500 -23 l-395 -6 -3
-777 -2 -778 -545 0 -545 0 0 2330 0 2330 780 0 c440 0 824 -4 882 -10z"/>
<path d="M2783 4706 l-33 -15 0 -749 c0 -636 2 -751 14 -761 18 -15 566 -9
641 7 123 26 144 33 205 64 75 39 94 53 171 128 59 57 109 129 109 155 0 8 3
15 8 15 9 0 31 61 41 115 4 23 11 46 15 53 14 23 24 254 16 363 -9 123 -17
155 -73 268 -39 77 -138 201 -161 201 -5 0 -17 6 -25 14 -25 22 -108 66 -125
66 -9 0 -16 4 -16 8 0 11 -73 31 -160 43 -162 23 -242 29 -415 34 -146 4 -186
3 -212 -9z"/>
</g>
</svg>
